<svg xmlns="http://www.w3.org/2000/svg" id="Calque_1" data-name="Calque 1" width="1465.34" height="730.02" viewBox="0 0 1465.34 730.02"><defs><style> .cls-1 { fill: #ffeb85; } </style></defs><path class="cls-1" d="M983.14,324.75h-190.1l81.05-112.53-132.89-173.94-118.94,155.91,96.71,130.56h-219.37l99.72-130.72-43.2-58.31-126.1,185.03-15.15-10.33,140.63-206.35,55.4,74.78L741.2,8.07l144.1,188.61,35.45-49.22,129.3,162.42-14.35,11.42-114.23-143.48-24.55,34.09,86.22,112.85ZM828.85,306.42h117.21l-60.33-78.97-56.88,78.97ZM536.66,306.42h145.92l-71.89-97.05-74.03,97.05Z"></path><g><g><path class="cls-1" d="M98.79,442.43c-7.93,0-14.88,1.81-20.86,5.44-5.98,3.62-11.48,8.75-16.48,15.37v66.58c4.47,5.97,9.37,10.18,14.72,12.62,5.35,2.44,11.29,3.66,17.87,3.66,12.87,0,22.74-4.56,29.7-13.72,6.92-9.15,10.41-22.18,10.41-39.15,0-8.97-.79-16.65-2.39-23.09-1.6-6.44-3.9-11.72-6.92-15.84-3.02-4.12-6.7-7.12-11.07-9.03s-9.34-2.84-14.91-2.84h-.06ZM37.04,636.39c-.13-1.66,0-6.15,0-7.09v-74.04c0-25.28.03-50.55.03-75.83v-54.11h14.5c3.46,0,5.66,1.69,6.57,5.03l2.04,16.31c5.91-7.15,12.71-12.9,20.32-17.25,7.61-4.34,16.39-6.53,26.33-6.53,7.93,0,15.13,1.53,21.61,4.56,6.48,3.03,11.99,7.53,16.55,13.47,4.56,5.94,8.08,13.31,10.54,22.09,2.45,8.78,3.68,18.9,3.68,30.3,0,10.15-1.35,19.59-4.09,28.34-2.74,8.75-6.67,16.31-11.77,22.68-5.1,6.37-11.39,11.4-18.81,15.09-7.42,3.66-15.79,5.5-25.1,5.5-8.59,0-15.89-1.41-21.96-4.22-6.07-2.81-11.42-6.78-16.08-11.97.88,1,0,7.03,0,8.31,0,6.53-.19,13.06-.19,19.59s-.13,13.31,0,19.96c.09,5.5.06,37.02,0,39.9-19.22,0-24.19-.06-24.19-.06v-.03Z"></path><path class="cls-1" d="M226.7,548.16c4.28,0,8.21-.44,11.77-1.28,3.55-.88,6.92-2.09,10.07-3.66,3.15-1.59,6.17-3.5,9.03-5.78,2.86-2.25,5.66-4.84,8.4-7.75v-28.4c-11.23,0-20.76.72-28.6,2.12-7.83,1.41-14.22,3.25-19.16,5.53-4.94,2.28-8.49,4.97-10.73,8.06-2.23,3.09-3.37,6.56-3.37,10.4s.6,6.78,1.79,9.44c1.2,2.66,2.77,4.81,4.78,6.5,2.01,1.69,4.37,2.91,7.11,3.69,2.74.78,5.69,1.16,8.9,1.16v-.03ZM289.93,562.97h-10.82c-2.36,0-4.28-.37-5.76-1.09-1.48-.72-2.42-2.25-2.86-4.62l-2.74-12.78c-3.65,3.25-7.2,6.19-10.66,8.78-3.46,2.59-7.11,4.75-10.95,6.53-3.84,1.78-7.93,3.09-12.24,4-4.34.91-9.15,1.37-14.44,1.37s-10.41-.75-15.13-2.25c-4.69-1.5-8.78-3.75-12.24-6.75-3.46-3-6.23-6.78-8.27-11.37s-3.08-10.03-3.08-16.28c0-5.47,1.51-10.72,4.5-15.75,3.02-5.03,7.86-9.53,14.57-13.43,6.7-3.91,15.48-7.12,26.33-9.62,10.85-2.5,24.13-3.75,39.83-3.75v-10.81c0-10.75-2.3-18.9-6.92-24.4-4.59-5.5-11.42-8.28-20.45-8.28-5.91,0-10.92.75-14.97,2.25-4.06,1.5-7.58,3.19-10.54,5.03-2.96,1.84-5.51,3.53-7.68,5.03-2.14,1.5-4.28,2.25-6.35,2.25-1.64,0-3.08-.44-4.31-1.28-1.23-.88-2.2-1.94-2.96-3.19l-4.37-7.75c7.68-7.34,15.92-12.81,24.76-16.43,8.84-3.62,18.65-5.44,29.41-5.44,7.74,0,14.63,1.28,20.67,3.81,6.01,2.53,11.07,6.06,15.19,10.59,4.09,4.53,7.2,10,9.31,16.43,2.11,6.44,3.15,13.5,3.15,21.21v88.04l.03-.06Z"></path><path class="cls-1" d="M421.42,449.78c-.72,1-1.45,1.78-2.2,2.31-.72.53-1.79.81-3.15.81s-2.86-.56-4.44-1.69c-1.6-1.12-3.62-2.37-6.1-3.75-2.45-1.34-5.44-2.59-8.97-3.75-3.52-1.12-7.83-1.69-12.93-1.69-6.76,0-12.71,1.19-17.93,3.59-5.19,2.41-9.56,5.87-13.06,10.4-3.52,4.53-6.17,10.03-7.93,16.43-1.79,6.44-2.67,13.65-2.67,21.62s.94,15.75,2.86,22.21c1.92,6.47,4.59,11.9,8.08,16.31,3.49,4.4,7.68,7.75,12.65,10.06,4.97,2.31,10.57,3.47,16.77,3.47s10.82-.69,14.63-2.09c3.84-1.41,7.02-2.97,9.56-4.69,2.55-1.72,4.66-3.28,6.29-4.69,1.64-1.41,3.27-2.09,4.94-2.09,2.11,0,3.65.78,4.66,2.31l6.83,8.84c-6.01,7.34-13.56,12.72-22.59,16.09-9.03,3.41-18.56,5.09-28.6,5.09-8.65,0-16.7-1.59-24.16-4.75-7.46-3.16-13.87-7.78-19.35-13.81-5.47-6.03-9.78-13.43-12.93-22.21-3.15-8.78-4.72-18.81-4.72-30.02,0-10.25,1.45-19.71,4.31-28.4,2.86-8.69,7.08-16.18,12.58-22.49,5.51-6.28,12.33-11.22,20.45-14.75,8.12-3.53,17.43-5.31,27.9-5.31,9.66,0,18.25,1.56,25.73,4.69,7.49,3.12,14.09,7.53,19.85,13.25l-6.42,8.69h.03Z"></path><path class="cls-1" d="M454.64,562.97v-200.17h24.35v80.98c5.91-6.25,12.49-11.25,19.69-15.03,7.2-3.75,15.51-5.62,24.91-5.62,7.58,0,14.25,1.25,20.04,3.75,5.79,2.5,10.63,6.03,14.5,10.59,3.87,4.56,6.83,10.09,8.84,16.5,2.01,6.44,3.02,13.56,3.02,21.34v87.63h-24.35v-87.63c0-10.4-2.39-18.5-7.17-24.24-4.78-5.75-12.11-8.62-21.96-8.62-7.2,0-13.94,1.72-20.2,5.16-6.26,3.44-12.02,8.12-17.3,14v101.38h-24.38Z"></path><path class="cls-1" d="M645.4,548.16c4.28,0,8.21-.44,11.77-1.28,3.55-.88,6.92-2.09,10.07-3.66,3.15-1.59,6.17-3.5,9.03-5.78,2.86-2.25,5.66-4.84,8.4-7.75v-28.4c-11.23,0-20.76.72-28.6,2.12-7.83,1.41-14.22,3.25-19.16,5.53-4.94,2.28-8.49,4.97-10.73,8.06-2.23,3.09-3.37,6.56-3.37,10.4s.6,6.78,1.79,9.44c1.2,2.66,2.77,4.81,4.78,6.5,2.01,1.69,4.37,2.91,7.11,3.69,2.74.78,5.69,1.16,8.9,1.16v-.03ZM708.6,562.97h-10.82c-2.36,0-4.28-.37-5.76-1.09-1.48-.72-2.42-2.25-2.86-4.62l-2.74-12.78c-3.65,3.25-7.2,6.19-10.66,8.78-3.46,2.59-7.11,4.75-10.95,6.53-3.84,1.78-7.93,3.09-12.24,4-4.34.91-9.15,1.37-14.44,1.37s-10.41-.75-15.13-2.25c-4.69-1.5-8.78-3.75-12.24-6.75-3.46-3-6.23-6.78-8.27-11.37-2.04-4.59-3.08-10.03-3.08-16.28,0-5.47,1.51-10.72,4.5-15.75,3.02-5.03,7.86-9.53,14.56-13.43,6.7-3.91,15.48-7.12,26.33-9.62,10.85-2.5,24.13-3.75,39.83-3.75v-10.81c0-10.75-2.3-18.9-6.92-24.4-4.59-5.5-11.42-8.28-20.45-8.28-5.91,0-10.92.75-14.97,2.25-4.06,1.5-7.58,3.19-10.54,5.03-2.96,1.84-5.51,3.53-7.68,5.03-2.14,1.5-4.28,2.25-6.35,2.25-1.64,0-3.08-.44-4.31-1.28-1.23-.88-2.2-1.94-2.96-3.19l-4.37-7.75c7.68-7.34,15.92-12.81,24.76-16.43,8.84-3.62,18.65-5.44,29.41-5.44,7.74,0,14.63,1.28,20.67,3.81,6.01,2.53,11.07,6.06,15.19,10.59,4.09,4.53,7.2,10,9.31,16.43,2.11,6.44,3.15,13.5,3.15,21.21v88.04l.03-.06Z"></path><path class="cls-1" d="M1001.73,548.41c4.28,0,8.21-.44,11.77-1.28,3.55-.87,6.92-2.09,10.07-3.66,3.15-1.59,6.17-3.5,9.03-5.78,2.86-2.25,5.66-4.84,8.4-7.75v-28.4c-11.23,0-20.76.72-28.6,2.12-7.83,1.41-14.22,3.25-19.16,5.53-4.94,2.28-8.49,4.97-10.73,8.06-2.23,3.09-3.37,6.56-3.37,10.4s.6,6.78,1.79,9.44c1.2,2.66,2.77,4.81,4.78,6.5,2.01,1.69,4.37,2.91,7.11,3.69,2.74.78,5.69,1.16,8.9,1.16v-.03ZM1064.96,563.22h-10.82c-2.36,0-4.28-.37-5.76-1.09-1.48-.72-2.42-2.25-2.86-4.62l-2.74-12.78c-3.65,3.25-7.2,6.19-10.66,8.78-3.46,2.59-7.11,4.75-10.95,6.53-3.84,1.78-7.93,3.09-12.24,4-4.34.91-9.15,1.37-14.44,1.37s-10.41-.75-15.13-2.25c-4.69-1.5-8.78-3.75-12.24-6.75-3.46-3-6.23-6.78-8.27-11.37-2.04-4.59-3.08-10.03-3.08-16.28,0-5.47,1.51-10.72,4.5-15.75,3.02-5.03,7.86-9.53,14.56-13.43,6.7-3.91,15.48-7.12,26.33-9.62,10.85-2.5,24.13-3.75,39.83-3.75v-10.81c0-10.75-2.3-18.9-6.92-24.4-4.59-5.5-11.42-8.28-20.45-8.28-5.91,0-10.92.75-14.97,2.25-4.06,1.5-7.58,3.19-10.54,5.03-2.96,1.84-5.51,3.53-7.68,5.03-2.14,1.5-4.28,2.25-6.35,2.25-1.64,0-3.08-.44-4.31-1.28-1.23-.87-2.2-1.94-2.96-3.19l-4.37-7.75c7.68-7.34,15.92-12.81,24.76-16.43,8.84-3.62,18.65-5.44,29.41-5.44,7.74,0,14.63,1.28,20.67,3.81,6.01,2.53,11.07,6.06,15.19,10.59,4.09,4.53,7.2,10,9.31,16.43,2.11,6.44,3.15,13.5,3.15,21.21v88.04l.03-.06Z"></path><path class="cls-1" d="M1101.89,563.22v-137.65h14.5c3.46,0,5.66,1.69,6.57,5.03l1.79,14.12c5.1-6.25,10.82-11.37,17.18-15.37,6.32-4,13.72-5.97,22.08-5.97,9.41,0,16.99,2.59,22.78,7.75,5.79,5.15,9.97,12.15,12.52,20.93,1.92-4.97,4.44-9.28,7.58-12.9s6.67-6.62,10.6-8.97c3.93-2.34,8.08-4.06,12.52-5.16,4.44-1.09,8.9-1.62,13.46-1.62,7.3,0,13.78,1.16,19.5,3.47,5.73,2.31,10.54,5.69,14.5,10.12,3.96,4.44,7.02,9.9,9.09,16.37,2.08,6.47,3.15,13.87,3.15,22.21v87.64h-24.35v-87.64c0-10.78-2.36-18.96-7.11-24.53-4.75-5.56-11.64-8.34-20.67-8.34-4.03,0-7.83.69-11.42,2.09-3.62,1.41-6.76,3.47-9.5,6.19-2.74,2.72-4.91,6.12-6.51,10.25-1.6,4.12-2.39,8.9-2.39,14.34v87.64h-24.35v-87.64c0-11.06-2.23-19.31-6.7-24.74-4.47-5.44-10.98-8.15-19.57-8.15-6.01,0-11.61,1.59-16.77,4.81-5.16,3.22-9.88,7.59-14.16,13.12v102.6h-24.35Z"></path><path class="cls-1" d="M742.01,563.22v-137.65h14.5c3.46,0,5.66,1.69,6.57,5.03l1.79,14.12c5.1-6.25,10.82-11.37,17.18-15.37,6.32-4,13.72-5.97,22.08-5.97,9.41,0,16.99,2.59,22.78,7.75,5.79,5.15,9.97,12.15,12.52,20.93,1.92-4.97,4.44-9.28,7.58-12.9,3.15-3.62,6.67-6.62,10.6-8.97,3.93-2.34,8.08-4.06,12.52-5.16s8.9-1.62,13.46-1.62c7.3,0,13.78,1.16,19.5,3.47,5.73,2.31,10.54,5.69,14.5,10.12,3.96,4.44,7.02,9.9,9.09,16.37,2.08,6.47,3.15,13.87,3.15,22.21v87.64h-24.35v-87.64c0-10.78-2.36-18.96-7.11-24.53-4.75-5.56-11.64-8.34-20.67-8.34-4.03,0-7.83.69-11.42,2.09-3.62,1.41-6.76,3.47-9.5,6.19-2.74,2.72-4.91,6.12-6.51,10.25-1.6,4.12-2.39,8.9-2.39,14.34v87.64h-24.35v-87.64c0-11.06-2.23-19.31-6.7-24.74-4.47-5.44-10.98-8.15-19.57-8.15-6.01,0-11.61,1.59-16.77,4.81-5.16,3.22-9.88,7.59-14.16,13.12v102.6h-24.35Z"></path><path class="cls-1" d="M1365.13,548.41c4.28,0,8.21-.44,11.77-1.28,3.55-.87,6.92-2.09,10.07-3.66,3.15-1.59,6.17-3.5,9.03-5.78,2.86-2.25,5.66-4.84,8.4-7.75v-28.4c-11.23,0-20.76.72-28.6,2.12-7.83,1.41-14.22,3.25-19.16,5.53-4.94,2.28-8.49,4.97-10.73,8.06-2.23,3.09-3.37,6.56-3.37,10.4s.6,6.78,1.79,9.44c1.2,2.66,2.77,4.81,4.78,6.5,2.01,1.69,4.37,2.91,7.11,3.69,2.74.78,5.69,1.16,8.9,1.16v-.03ZM1428.36,563.22h-10.82c-2.36,0-4.28-.37-5.76-1.09-1.48-.72-2.42-2.25-2.86-4.62l-2.74-12.78c-3.65,3.25-7.2,6.19-10.66,8.78-3.46,2.59-7.11,4.75-10.95,6.53-3.84,1.78-7.93,3.09-12.24,4-4.34.91-9.15,1.37-14.44,1.37s-10.41-.75-15.13-2.25c-4.69-1.5-8.78-3.75-12.24-6.75-3.46-3-6.23-6.78-8.27-11.37-2.04-4.59-3.08-10.03-3.08-16.28,0-5.47,1.51-10.72,4.5-15.75,3.02-5.03,7.86-9.53,14.57-13.43,6.7-3.91,15.48-7.12,26.33-9.62,10.85-2.5,24.13-3.75,39.83-3.75v-10.81c0-10.75-2.3-18.9-6.92-24.4-4.59-5.5-11.42-8.28-20.45-8.28-5.91,0-10.92.75-14.97,2.25-4.06,1.5-7.58,3.19-10.54,5.03-2.96,1.84-5.5,3.53-7.68,5.03-2.14,1.5-4.28,2.25-6.35,2.25-1.64,0-3.08-.44-4.31-1.28-1.23-.87-2.2-1.94-2.96-3.19l-4.37-7.75c7.68-7.34,15.92-12.81,24.76-16.43,8.84-3.62,18.65-5.44,29.41-5.44,7.74,0,14.63,1.28,20.67,3.81,6.01,2.53,11.07,6.06,15.19,10.59,4.09,4.53,7.2,10,9.31,16.43,2.11,6.44,3.15,13.5,3.15,21.21v88.04l.03-.06Z"></path></g><g><path class="cls-1" d="M183.93,678.79c0-3.63-.55-6.89-1.58-9.79-1.04-2.89-2.51-5.37-4.43-7.37-1.91-2-4.21-3.58-6.89-4.63-2.68-1.05-5.63-1.58-8.91-1.58s-6.18.53-8.8,1.58c-2.68,1.05-4.97,2.63-6.89,4.63-1.91,2-3.39,4.47-4.48,7.37-1.04,2.9-1.58,6.16-1.58,9.79s.55,6.95,1.58,9.84c1.04,2.89,2.57,5.32,4.48,7.37,1.91,2,4.21,3.53,6.89,4.63,2.68,1.05,5.63,1.58,8.8,1.58s6.23-.53,8.91-1.58c2.68-1.05,4.97-2.58,6.89-4.63,1.91-2,3.39-4.47,4.43-7.37,1.04-2.9,1.58-6.16,1.58-9.84ZM188.03,678.79c0,4.05-.6,7.68-1.86,10.95-1.26,3.26-3.01,6.05-5.3,8.42-2.3,2.32-4.97,4.11-8.14,5.37-3.17,1.26-6.67,1.89-10.49,1.89s-7.27-.63-10.44-1.89c-3.17-1.26-5.9-3.05-8.14-5.37-2.3-2.32-4.04-5.11-5.3-8.42-1.26-3.26-1.91-6.95-1.91-10.95s.66-7.63,1.91-10.95c1.26-3.26,3.01-6.11,5.3-8.42,2.3-2.32,4.97-4.11,8.14-5.42,3.17-1.26,6.67-1.9,10.44-1.9s7.38.63,10.49,1.9c3.17,1.26,5.9,3.05,8.14,5.42,2.24,2.37,4.04,5.16,5.3,8.42,1.26,3.26,1.86,6.9,1.86,10.95Z"></path><path class="cls-1" d="M162.17,656.74c-3.01,0-5.79.53-8.31,1.53-2.46,1-4.65,2.42-6.39,4.32-1.8,1.89-3.17,4.21-4.21,6.9-.98,2.74-1.53,5.89-1.53,9.37s.49,6.63,1.53,9.37c.98,2.68,2.4,5.05,4.21,6.9,1.8,1.84,3.94,3.32,6.39,4.26,5.03,2,11.7,1.95,16.67,0,2.46-.95,4.65-2.42,6.39-4.26,1.75-1.9,3.17-4.21,4.15-6.9.98-2.74,1.48-5.9,1.48-9.37s-.49-6.63-1.48-9.37c-.98-2.74-2.35-5.05-4.15-6.9-1.75-1.84-3.88-3.32-6.39-4.32-2.51-1-5.3-1.53-8.42-1.53h.05ZM162.17,703.48c-3.39,0-6.5-.58-9.35-1.68s-5.3-2.79-7.38-4.95c-2.02-2.16-3.66-4.74-4.76-7.79-1.09-3-1.69-6.47-1.69-10.26s.55-7.21,1.69-10.26c1.09-3.05,2.73-5.68,4.76-7.84,2.08-2.16,4.54-3.79,7.38-4.95,5.68-2.26,13.12-2.26,18.8,0,2.84,1.16,5.36,2.79,7.38,4.95,2.02,2.16,3.61,4.79,4.7,7.84,1.09,3.05,1.64,6.47,1.64,10.21s-.55,7.26-1.64,10.26c-1.09,3.05-2.68,5.68-4.7,7.79-2.02,2.16-4.48,3.84-7.38,4.95-2.84,1.11-6.01,1.68-9.46,1.68v.05ZM162.17,653.47c-3.61,0-6.94.63-9.89,1.79-2.95,1.21-5.57,2.89-7.71,5.11-2.13,2.16-3.83,4.84-5.03,7.95-1.2,3.11-1.8,6.63-1.8,10.47s.6,7.37,1.8,10.53c1.2,3.11,2.9,5.79,5.03,7.95,2.13,2.16,4.7,3.9,7.65,5.05,6.01,2.42,13.99,2.37,19.89,0,2.95-1.21,5.57-2.9,7.71-5.05,2.13-2.16,3.83-4.84,4.97-7.95,1.2-3.11,1.8-6.63,1.8-10.53s-.6-7.37-1.8-10.47c-1.2-3.11-2.84-5.79-4.97-7.95-2.13-2.21-4.7-3.89-7.65-5.11s-6.34-1.79-10-1.79ZM162.17,706.79c-3.99,0-7.65-.68-10.99-2-3.33-1.32-6.23-3.26-8.64-5.68-2.4-2.42-4.26-5.42-5.57-8.84-1.31-3.42-1.97-7.26-1.97-11.42s.66-7.95,1.97-11.37c1.31-3.42,3.22-6.42,5.57-8.84,2.4-2.42,5.3-4.37,8.64-5.68,6.67-2.68,15.47-2.63,22.03,0,3.33,1.32,6.23,3.26,8.64,5.68,2.4,2.47,4.26,5.42,5.57,8.84,1.31,3.42,1.97,7.26,1.97,11.37s-.66,8-1.97,11.42c-1.31,3.42-3.17,6.42-5.57,8.84-2.4,2.42-5.3,4.37-8.64,5.68-3.28,1.32-7.05,2-11.04,2Z"></path><path class="cls-1" d="M239.89,702.21c2.62,0,4.92-.42,7-1.32,2.08-.89,3.77-2.11,5.25-3.63,1.42-1.53,2.51-3.37,3.28-5.47.77-2.11,1.15-4.37,1.15-6.79v-32.21h3.88v32.21c0,2.89-.49,5.58-1.42,8.05-.93,2.47-2.3,4.68-4.1,6.53-1.8,1.84-3.94,3.32-6.45,4.37-2.51,1.05-5.41,1.58-8.53,1.58s-6.01-.53-8.53-1.58c-2.51-1.05-4.7-2.53-6.45-4.37-1.75-1.84-3.12-4-4.1-6.53-.93-2.47-1.42-5.16-1.42-8.05v-32.21h3.94v32.21c0,2.42.38,4.68,1.15,6.79.77,2.1,1.86,3.95,3.22,5.47,1.37,1.53,3.17,2.79,5.19,3.63,2.02.84,4.37,1.32,7,1.32h-.05Z"></path><path class="cls-1" d="M220.76,654.05v30.95c0,2.74.44,5.26,1.31,7.58.87,2.32,2.13,4.37,3.83,6.11,1.64,1.68,3.66,3.05,6.01,4.05,4.7,1.95,11.31,1.95,16.01,0,2.35-1,4.37-2.37,6.01-4.05,1.64-1.74,2.9-3.74,3.77-6.11.87-2.32,1.31-4.89,1.31-7.58v-30.95h-1.15v30.95c0,2.58-.38,5-1.2,7.21-.82,2.26-2.02,4.26-3.55,5.9-1.58,1.68-3.5,3-5.68,3.95-4.43,1.9-10.6,1.9-15.08,0-2.24-.95-4.15-2.32-5.68-4-1.53-1.68-2.73-3.63-3.5-5.89-.82-2.26-1.2-4.68-1.2-7.21v-30.9h-1.2ZM239.89,706.85c-3.33,0-6.39-.58-9.07-1.68-2.73-1.11-5.03-2.68-6.94-4.68s-3.39-4.32-4.37-6.95c-.98-2.63-1.48-5.47-1.48-8.53v-33.58h6.67v33.53c0,2.26.38,4.42,1.04,6.37.71,1.95,1.69,3.63,3.01,5.05,1.26,1.42,2.9,2.53,4.76,3.32,3.77,1.63,9.13,1.63,12.84,0,1.86-.79,3.44-1.89,4.75-3.32,1.31-1.42,2.3-3.11,3.01-5.05.71-1.95,1.04-4.11,1.04-6.37v-33.58h6.61v33.58c0,3-.49,5.9-1.48,8.53-.98,2.63-2.46,5-4.37,6.95-1.91,2-4.21,3.58-6.94,4.68-2.68,1.11-5.74,1.68-9.07,1.68v.05Z"></path><polygon class="cls-1" points="330.46 652.74 330.46 655.95 311.44 655.95 311.44 704.9 307.56 704.9 307.56 655.95 288.43 655.95 288.43 652.74 330.46 652.74"></polygon><path class="cls-1" d="M308.92,703.58h1.15v-48.95h19.02v-.58h-39.3v.58h19.13v48.95ZM312.8,706.21h-6.61v-48.95h-19.13v-5.84h44.76v5.84h-19.02v48.95Z"></path><path class="cls-1" d="M400.47,678.79c0-3.63-.55-6.89-1.58-9.74-1.04-2.84-2.51-5.26-4.43-7.21-1.91-1.95-4.21-3.47-6.89-4.47-2.68-1.05-5.63-1.53-8.91-1.53h-15.8v46h15.8c3.28,0,6.23-.53,8.91-1.53,2.68-1,4.97-2.53,6.89-4.47,1.91-1.95,3.39-4.37,4.43-7.21,1.04-2.84,1.58-6.11,1.58-9.79v-.05ZM404.57,678.79c0,4.05-.6,7.63-1.86,10.9-1.26,3.26-3.01,5.95-5.3,8.21-2.3,2.26-4.97,4-8.14,5.21-3.17,1.21-6.67,1.79-10.49,1.79h-19.73v-52.16h19.73c3.83,0,7.38.58,10.49,1.79,3.17,1.21,5.9,2.95,8.14,5.21,2.3,2.26,4.04,5,5.3,8.21,1.26,3.21,1.86,6.84,1.86,10.84h0Z"></path><path class="cls-1" d="M364.29,700.53h14.43c3.06,0,5.9-.47,8.42-1.47,2.46-.95,4.65-2.37,6.39-4.16,1.75-1.84,3.17-4.11,4.15-6.74.98-2.68,1.48-5.84,1.48-9.32s-.49-6.58-1.48-9.26c-.98-2.68-2.35-4.95-4.15-6.74-1.75-1.79-3.88-3.21-6.39-4.16-2.51-.95-5.36-1.47-8.42-1.47h-14.43v43.37-.05ZM378.72,703.16h-17.16v-48.63h17.16c3.39,0,6.56.53,9.4,1.63,2.84,1.11,5.36,2.74,7.38,4.84,2.02,2.11,3.61,4.68,4.7,7.68s1.64,6.37,1.64,10.16-.55,7.21-1.64,10.21c-1.09,3-2.68,5.58-4.7,7.68-2.02,2.11-4.48,3.74-7.38,4.84-2.84,1.11-6.01,1.63-9.4,1.63v-.05ZM360.36,703.58h18.36c3.66,0,7.05-.58,10-1.74,2.95-1.11,5.52-2.79,7.65-4.9,2.13-2.11,3.83-4.74,4.97-7.74,1.2-3.05,1.8-6.58,1.8-10.42s-.6-7.32-1.8-10.37c-1.15-3.05-2.84-5.63-4.97-7.79-2.13-2.11-4.7-3.74-7.65-4.9-3.01-1.16-6.34-1.74-10-1.74h-18.36v49.58ZM378.72,706.21h-21.1v-54.79h21.1c3.99,0,7.71.63,11.04,1.89,3.33,1.26,6.23,3.11,8.64,5.47,2.4,2.37,4.26,5.32,5.57,8.68s1.97,7.16,1.97,11.32-.66,8-1.97,11.32c-1.31,3.37-3.17,6.26-5.57,8.68-2.4,2.37-5.3,4.26-8.64,5.53-3.28,1.26-7,1.9-11.04,1.9h0Z"></path><path class="cls-1" d="M480.49,678.79c0-3.63-.55-6.89-1.59-9.79-1.04-2.89-2.51-5.37-4.43-7.37-1.91-2-4.21-3.58-6.89-4.63-2.68-1.05-5.63-1.58-8.91-1.58s-6.18.53-8.8,1.58c-2.68,1.05-4.97,2.63-6.89,4.63-1.91,2-3.39,4.47-4.48,7.37-1.04,2.9-1.59,6.16-1.59,9.79s.55,6.95,1.59,9.84c1.04,2.89,2.57,5.32,4.48,7.37,1.91,2,4.21,3.53,6.89,4.63,2.68,1.05,5.63,1.58,8.8,1.58s6.23-.53,8.91-1.58,4.97-2.58,6.89-4.63c1.91-2,3.39-4.47,4.43-7.37,1.04-2.9,1.59-6.16,1.59-9.84ZM484.53,678.79c0,4.05-.6,7.68-1.86,10.95-1.26,3.26-3.01,6.05-5.3,8.42-2.3,2.32-4.97,4.11-8.14,5.37-3.17,1.26-6.67,1.89-10.49,1.89s-7.27-.63-10.44-1.89c-3.17-1.26-5.9-3.05-8.14-5.37-2.3-2.32-4.04-5.11-5.3-8.42-1.26-3.26-1.91-6.95-1.91-10.95s.66-7.63,1.91-10.95c1.26-3.26,3.01-6.11,5.3-8.42s4.97-4.11,8.14-5.42c3.17-1.26,6.67-1.9,10.44-1.9s7.38.63,10.49,1.9c3.17,1.26,5.9,3.05,8.14,5.42,2.24,2.37,4.04,5.16,5.3,8.42,1.26,3.26,1.86,6.9,1.86,10.95Z"></path><path class="cls-1" d="M458.74,656.74c-3.01,0-5.79.53-8.31,1.53-2.46,1-4.65,2.42-6.39,4.32-1.8,1.89-3.17,4.21-4.21,6.9-.98,2.74-1.53,5.89-1.53,9.37s.49,6.63,1.53,9.37c.98,2.68,2.4,5.05,4.21,6.9,1.8,1.84,3.94,3.32,6.39,4.26,5.03,2,11.7,1.95,16.67,0,2.46-.95,4.65-2.42,6.39-4.26,1.75-1.9,3.17-4.21,4.15-6.9.98-2.74,1.48-5.9,1.48-9.37s-.49-6.63-1.48-9.37c-.98-2.74-2.35-5.05-4.15-6.9-1.75-1.84-3.88-3.32-6.39-4.32-2.51-1-5.3-1.53-8.42-1.53h.05ZM458.74,703.48c-3.39,0-6.5-.58-9.35-1.68-2.84-1.11-5.3-2.79-7.38-4.95-2.02-2.16-3.66-4.74-4.75-7.79-1.09-3-1.69-6.47-1.69-10.26s.55-7.21,1.69-10.26c1.09-3.05,2.73-5.68,4.75-7.84,2.08-2.16,4.54-3.79,7.38-4.95,5.68-2.26,13.12-2.26,18.8,0,2.84,1.16,5.36,2.79,7.38,4.95,2.02,2.16,3.61,4.79,4.7,7.84,1.09,3.05,1.64,6.47,1.64,10.21s-.55,7.26-1.64,10.26c-1.09,3.05-2.68,5.68-4.7,7.79-2.02,2.16-4.48,3.84-7.38,4.95-2.84,1.11-6.01,1.68-9.46,1.68v.05ZM458.74,653.47c-3.61,0-6.94.63-9.89,1.79-2.95,1.21-5.57,2.89-7.71,5.11-2.13,2.16-3.83,4.84-5.03,7.95-1.2,3.11-1.8,6.63-1.8,10.47s.6,7.37,1.8,10.53c1.2,3.11,2.9,5.79,5.03,7.95s4.7,3.9,7.65,5.05c6.01,2.42,13.99,2.37,19.89,0,2.95-1.21,5.57-2.9,7.71-5.05,2.13-2.16,3.83-4.84,4.97-7.95,1.2-3.11,1.8-6.63,1.8-10.53s-.6-7.37-1.8-10.47c-1.2-3.11-2.84-5.79-4.97-7.95-2.13-2.21-4.7-3.89-7.65-5.11s-6.34-1.79-10-1.79h0ZM458.74,706.79c-3.99,0-7.65-.68-10.99-2-3.33-1.32-6.23-3.26-8.64-5.68-2.4-2.42-4.26-5.42-5.57-8.84-1.31-3.42-1.97-7.26-1.97-11.42s.66-7.95,1.97-11.37c1.31-3.42,3.22-6.42,5.57-8.84,2.4-2.42,5.3-4.37,8.64-5.68,6.67-2.68,15.47-2.63,22.03,0,3.33,1.32,6.23,3.26,8.64,5.68,2.4,2.47,4.26,5.42,5.57,8.84,1.31,3.42,1.97,7.26,1.97,11.37s-.66,8-1.97,11.42c-1.31,3.42-3.17,6.42-5.57,8.84-2.4,2.42-5.3,4.37-8.64,5.68-3.28,1.32-7.05,2-11.04,2Z"></path><path class="cls-1" d="M560.61,678.79c0-3.63-.55-6.89-1.59-9.79-1.04-2.89-2.51-5.37-4.43-7.37-1.91-2-4.21-3.58-6.89-4.63-2.68-1.05-5.63-1.58-8.91-1.58s-6.18.53-8.8,1.58c-2.68,1.05-4.97,2.63-6.89,4.63s-3.39,4.47-4.48,7.37c-1.04,2.9-1.58,6.16-1.58,9.79s.55,6.95,1.58,9.84c1.04,2.89,2.57,5.32,4.48,7.37,1.91,2,4.21,3.53,6.89,4.63,2.68,1.05,5.63,1.58,8.8,1.58s6.23-.53,8.91-1.58c2.68-1.05,4.97-2.58,6.89-4.63,1.91-2,3.39-4.47,4.43-7.37,1.04-2.9,1.59-6.16,1.59-9.84ZM564.71,678.79c0,4.05-.6,7.68-1.86,10.95-1.26,3.26-3.01,6.05-5.3,8.42-2.3,2.32-4.97,4.11-8.14,5.37-3.17,1.26-6.67,1.89-10.49,1.89s-7.27-.63-10.44-1.89c-3.17-1.26-5.9-3.05-8.14-5.37-2.3-2.32-4.04-5.11-5.3-8.42-1.26-3.26-1.91-6.95-1.91-10.95s.66-7.63,1.91-10.95c1.26-3.26,3.01-6.11,5.3-8.42,2.3-2.32,4.97-4.11,8.14-5.42,3.17-1.26,6.67-1.9,10.44-1.9s7.38.63,10.49,1.9c3.17,1.26,5.9,3.05,8.14,5.42,2.24,2.37,4.04,5.16,5.3,8.42,1.26,3.26,1.86,6.9,1.86,10.95Z"></path><path class="cls-1" d="M538.86,656.74c-3.01,0-5.79.53-8.31,1.53-2.46,1-4.65,2.42-6.39,4.32-1.8,1.89-3.17,4.21-4.21,6.9-.98,2.74-1.53,5.89-1.53,9.37s.49,6.63,1.53,9.37c.98,2.68,2.4,5.05,4.21,6.9,1.8,1.84,3.94,3.32,6.39,4.26,5.03,2,11.75,1.95,16.67,0,2.46-.95,4.65-2.42,6.39-4.26,1.75-1.9,3.17-4.21,4.15-6.9.98-2.74,1.48-5.9,1.48-9.37s-.49-6.63-1.48-9.37c-.98-2.74-2.35-5.05-4.15-6.9-1.75-1.84-3.88-3.32-6.39-4.32-2.51-1-5.3-1.53-8.42-1.53h.05ZM538.86,703.48c-3.39,0-6.5-.58-9.35-1.68-2.84-1.11-5.3-2.79-7.38-4.95-2.02-2.16-3.66-4.74-4.75-7.79-1.09-3-1.69-6.47-1.69-10.26s.55-7.21,1.69-10.26c1.09-3.05,2.73-5.68,4.75-7.84,2.08-2.16,4.54-3.79,7.38-4.95,5.68-2.26,13.17-2.26,18.8,0,2.84,1.16,5.36,2.79,7.38,4.95,2.02,2.16,3.61,4.79,4.7,7.84,1.09,3.05,1.64,6.47,1.64,10.21s-.55,7.26-1.64,10.26c-1.09,3.05-2.68,5.68-4.7,7.79-2.02,2.16-4.48,3.84-7.38,4.95-2.84,1.11-6.01,1.68-9.46,1.68v.05ZM538.86,653.47c-3.61,0-6.94.63-9.89,1.79-2.95,1.21-5.57,2.89-7.71,5.11-2.13,2.16-3.83,4.84-5.03,7.95-1.2,3.11-1.8,6.63-1.8,10.47s.6,7.37,1.8,10.53c1.2,3.11,2.9,5.79,5.03,7.95,2.13,2.16,4.7,3.9,7.65,5.05,6.01,2.42,13.99,2.37,19.89,0,2.95-1.21,5.57-2.9,7.71-5.05,2.13-2.16,3.83-4.84,4.97-7.95,1.2-3.11,1.8-6.63,1.8-10.53s-.6-7.37-1.8-10.47c-1.2-3.11-2.84-5.79-4.97-7.95-2.13-2.21-4.7-3.89-7.65-5.11-2.95-1.21-6.34-1.79-10-1.79h0ZM538.86,706.79c-3.99,0-7.65-.68-10.99-2-3.33-1.32-6.23-3.26-8.64-5.68s-4.26-5.42-5.57-8.84c-1.31-3.42-1.97-7.26-1.97-11.42s.66-7.95,1.97-11.37c1.31-3.42,3.22-6.42,5.57-8.84,2.4-2.42,5.3-4.37,8.64-5.68,6.67-2.68,15.47-2.63,22.03,0,3.33,1.32,6.23,3.26,8.64,5.68,2.4,2.47,4.26,5.42,5.57,8.84,1.31,3.42,1.97,7.26,1.97,11.37s-.66,8-1.97,11.42c-1.31,3.42-3.17,6.42-5.57,8.84-2.4,2.42-5.3,4.37-8.64,5.68-3.28,1.32-7.05,2-11.04,2Z"></path><path class="cls-1" d="M601.61,678.53h9.4c2.4,0,4.54-.26,6.45-.84,1.91-.53,3.5-1.32,4.81-2.37,1.31-1.05,2.3-2.26,3.01-3.74s1.04-3.11,1.04-4.89c0-3.74-1.26-6.47-3.77-8.26-2.51-1.79-6.18-2.68-11.04-2.68h-9.89v22.79ZM601.61,681.32v23.58h-3.88v-52.16h13.83c6.23,0,10.93,1.16,13.99,3.47,3.12,2.32,4.65,5.74,4.65,10.21,0,2-.38,3.79-1.09,5.47-.71,1.68-1.75,3.11-3.06,4.32-1.31,1.21-2.95,2.26-4.86,3.05-1.86.79-3.99,1.32-6.4,1.58.6.37,1.15.84,1.64,1.47l18.64,22.53h-3.39c-.38,0-.77-.05-1.04-.21-.27-.16-.6-.37-.87-.74l-17.33-21.16c-.44-.53-.93-.89-1.42-1.16-.49-.26-1.26-.32-2.3-.32h-7.11v.05Z"></path><path class="cls-1" d="M602.97,677.21h8.03c2.24,0,4.26-.26,6.07-.79,1.69-.47,3.17-1.21,4.37-2.16,1.15-.89,2.02-2,2.62-3.26.6-1.26.93-2.74.93-4.37,0-3.32-1.04-5.63-3.22-7.21-2.3-1.63-5.68-2.42-10.22-2.42h-8.53v20.16l-.05.05ZM599.09,703.58h1.15v-23.58h8.47c1.15,0,2.02.11,2.68.37l-.66-.42,1.48-.16h-11.91v-25.42h11.26c5.08,0,9.07,1,11.81,2.95,2.9,2.05,4.32,5.16,4.32,9.32,0,2-.38,3.84-1.15,5.42-.77,1.63-1.91,3.05-3.39,4.21-1.42,1.16-3.22,2-5.3,2.63-.55.16-1.09.32-1.69.42,1.59-.26,3.06-.68,4.43-1.26,1.75-.74,3.22-1.68,4.43-2.79,1.2-1.11,2.13-2.42,2.79-3.89.66-1.47.98-3.16.98-4.95,0-4.11-1.37-7.11-4.1-9.21-2.84-2.11-7.27-3.21-13.17-3.21h-12.46v49.53l.05.05ZM612.7,681.16s.55.47.77.79l17.33,21.16s.33.37.44.37c0,0,.16.05.44.05h.55l-16.89-20.42c-.38-.53-.82-.89-1.31-1.16l-1.31-.79ZM637.9,706.21h-6.23c-.66,0-1.2-.11-1.69-.37-.49-.21-.93-.63-1.31-1.11l-17.33-21.16c-.33-.37-.6-.63-.87-.79-.16-.05-.6-.21-1.75-.21h-5.74v23.58h-6.61v-54.79h15.19c6.56,0,11.53,1.26,14.87,3.74,3.44,2.58,5.14,6.37,5.14,11.26,0,2.16-.38,4.16-1.2,5.95-.77,1.79-1.91,3.42-3.39,4.79-1.48,1.37-3.22,2.47-5.25,3.32-1.26.53-2.62.95-4.04,1.26l20.22,24.47v.05Z"></path><rect class="cls-1" x="699.28" y="652.74" width="3.94" height="52.16"></rect><path class="cls-1" d="M700.64,703.58h1.2v-49.53h-1.2v49.53ZM704.58,706.21h-6.67v-54.79h6.67v54.79Z"></path><path class="cls-1" d="M742.62,652.9s.44.26.66.58l35.03,45.16c-.05-.74-.11-1.42-.11-2.16v-43.74h3.44v52.16h-1.86c-.6,0-1.04-.26-1.42-.74l-35.2-45.27c.05.74.11,1.42.11,2.11v43.9h-3.39v-52.16h1.91c.38,0,.66,0,.82.11v.05Z"></path><path class="cls-1" d="M741.36,654.37l38.1,49s.22.21.33.21h.49v-49.53h-.71v42.42c0,.63,0,1.32.11,2l.49,4.68-37.99-48.95.44-1.37-.55,1.21h-.87v49.48h.66v-42.58c0-.63,0-1.26-.11-2l-.49-4.68.11.11ZM783.01,706.21h-3.22c-1.04,0-1.91-.47-2.51-1.32l-32.57-41.9v43.21h-6.12v-54.79h3.28c.55,0,.98.05,1.37.21.44.21.82.53,1.2,1l32.47,41.84v-43.11h6.18v54.79l-.06.05Z"></path><path class="cls-1" d="M819.63,652.9s.44.26.66.58l35.03,45.16c-.05-.74-.11-1.42-.11-2.16v-43.74h3.44v52.16h-1.86c-.6,0-1.04-.26-1.42-.74l-35.2-45.27c.05.74.11,1.42.11,2.11v43.9h-3.39v-52.16h1.91c.38,0,.66,0,.82.11v.05Z"></path><path class="cls-1" d="M818.32,654.37l38.1,49s.22.21.33.21h.49v-49.53h-.71v42.42c0,.63,0,1.32.11,2l.49,4.68-37.99-48.95.44-1.37-.55,1.21h-.87v49.48h.66v-42.58c0-.63,0-1.26-.11-2l-.49-4.68.11.11ZM860.02,706.21h-3.22c-1.04,0-1.91-.47-2.51-1.32l-32.57-41.9v43.21h-6.12v-54.79h3.28c.55,0,.98.05,1.37.21.44.21.82.53,1.2,1l32.47,41.84v-43.11h6.18v54.79l-.05.05Z"></path><path class="cls-1" d="M938.07,678.79c0-3.63-.55-6.89-1.59-9.79-1.04-2.89-2.51-5.37-4.43-7.37-1.91-2-4.21-3.58-6.89-4.63-2.68-1.05-5.63-1.58-8.91-1.58s-6.18.53-8.8,1.58c-2.68,1.05-4.97,2.63-6.89,4.63-1.91,2-3.39,4.47-4.48,7.37-1.04,2.9-1.58,6.16-1.58,9.79s.55,6.95,1.58,9.84c1.04,2.89,2.57,5.32,4.48,7.37,1.91,2,4.21,3.53,6.89,4.63,2.68,1.05,5.63,1.58,8.8,1.58s6.23-.53,8.91-1.58c2.68-1.05,4.97-2.58,6.89-4.63,1.91-2,3.39-4.47,4.43-7.37,1.04-2.9,1.59-6.16,1.59-9.84ZM942.11,678.79c0,4.05-.6,7.68-1.86,10.95-1.26,3.26-3.01,6.05-5.3,8.42-2.3,2.32-4.97,4.11-8.14,5.37-3.17,1.26-6.67,1.89-10.49,1.89s-7.27-.63-10.44-1.89c-3.17-1.26-5.9-3.05-8.14-5.37-2.3-2.32-4.04-5.11-5.3-8.42-1.26-3.26-1.91-6.95-1.91-10.95s.66-7.63,1.91-10.95c1.26-3.26,3.01-6.11,5.3-8.42,2.3-2.32,4.97-4.11,8.14-5.42,3.17-1.26,6.67-1.9,10.44-1.9s7.38.63,10.49,1.9c3.17,1.26,5.9,3.05,8.14,5.42,2.24,2.37,4.04,5.16,5.3,8.42,1.26,3.26,1.86,6.9,1.86,10.95Z"></path><path class="cls-1" d="M916.31,656.74c-3.01,0-5.79.53-8.31,1.53-2.46,1-4.65,2.42-6.39,4.32-1.8,1.89-3.17,4.21-4.21,6.9-.98,2.74-1.53,5.89-1.53,9.37s.49,6.63,1.53,9.37c.98,2.68,2.4,5.05,4.21,6.9,1.8,1.84,3.94,3.32,6.39,4.26,5.03,2,11.75,1.95,16.67,0,2.46-.95,4.65-2.42,6.39-4.26,1.75-1.9,3.17-4.21,4.15-6.9.98-2.74,1.48-5.9,1.48-9.37s-.49-6.63-1.48-9.37c-.98-2.74-2.35-5.05-4.15-6.9-1.75-1.84-3.88-3.32-6.39-4.32-2.51-1-5.3-1.53-8.42-1.53h.06ZM916.31,703.48c-3.39,0-6.5-.58-9.35-1.68-2.84-1.11-5.3-2.79-7.38-4.95-2.02-2.16-3.66-4.74-4.76-7.79-1.09-3-1.69-6.47-1.69-10.26s.55-7.21,1.69-10.26c1.09-3.05,2.73-5.68,4.76-7.84,2.08-2.16,4.54-3.79,7.38-4.95,5.68-2.26,13.17-2.26,18.8,0,2.84,1.16,5.36,2.79,7.38,4.95,2.02,2.16,3.61,4.79,4.7,7.84,1.09,3.05,1.64,6.47,1.64,10.21s-.55,7.26-1.64,10.26c-1.09,3.05-2.68,5.68-4.7,7.79-2.02,2.16-4.48,3.84-7.38,4.95-2.84,1.11-6.01,1.68-9.46,1.68v.05ZM916.31,653.47c-3.61,0-6.94.63-9.89,1.79-2.95,1.21-5.57,2.89-7.71,5.11-2.13,2.16-3.83,4.84-5.03,7.95-1.2,3.11-1.8,6.63-1.8,10.47s.6,7.37,1.8,10.53c1.2,3.11,2.9,5.79,5.03,7.95,2.13,2.16,4.7,3.9,7.65,5.05,6.01,2.42,13.99,2.37,19.89,0,2.95-1.21,5.57-2.9,7.71-5.05,2.13-2.16,3.83-4.84,4.97-7.95,1.2-3.11,1.8-6.63,1.8-10.53s-.6-7.37-1.8-10.47c-1.2-3.11-2.84-5.79-4.97-7.95-2.13-2.21-4.7-3.89-7.65-5.11-2.95-1.21-6.34-1.79-10-1.79h0ZM916.31,706.79c-3.99,0-7.65-.68-10.99-2-3.33-1.32-6.23-3.26-8.64-5.68-2.4-2.42-4.26-5.42-5.57-8.84-1.31-3.42-1.97-7.26-1.97-11.42s.66-7.95,1.97-11.37c1.31-3.42,3.22-6.42,5.57-8.84,2.41-2.42,5.3-4.37,8.64-5.68,6.67-2.68,15.47-2.63,22.03,0,3.33,1.32,6.23,3.26,8.64,5.68,2.4,2.47,4.26,5.42,5.57,8.84,1.31,3.42,1.97,7.26,1.97,11.37s-.66,8-1.97,11.42c-1.31,3.42-3.17,6.42-5.57,8.84-2.4,2.42-5.3,4.37-8.64,5.68-3.28,1.32-7.05,2-11.04,2Z"></path><path class="cls-1" d="M964.79,652.74h3.12c.38,0,.66.11.87.26.22.16.38.42.55.74l18.42,43.27c.49,1.11.87,2.32,1.2,3.63.27-1.32.66-2.53,1.09-3.63l18.42-43.27c.11-.26.33-.53.55-.68.22-.21.55-.32.93-.32h3.06l-22.35,52.16h-3.5l-22.35-52.16h0Z"></path><path class="cls-1" d="M1009.94,654.05l-18.58,43.42c-.44,1-.77,2.16-1.04,3.37l-.55,2.63,21.21-49.48h-1.04v.05ZM988.08,703.58h.22l-.66-2.63c-.27-1.21-.66-2.37-1.15-3.42l-18.42-43.27h-1.15l21.15,49.32h0ZM989.06,706.85l-.16-.63h-2.68l-.33-.79-23.12-53.95h5.14c.66,0,1.26.21,1.75.58.38.32.71.74.93,1.21l18.31,43,18.31-43c.22-.47.55-.89.93-1.21.49-.42,1.09-.63,1.8-.63h5.08l-23.45,54.79h-2.35l-.11.63h-.05Z"></path><path class="cls-1" d="M1041.58,685.95h24.27l-11.04-26.32c-.16-.42-.38-.89-.55-1.42-.16-.53-.38-1.11-.55-1.68-.16.58-.38,1.16-.55,1.68-.16.53-.38,1-.55,1.47l-11.04,26.32v-.05ZM1077.82,704.9h-3.01c-.38,0-.66-.11-.87-.26-.22-.16-.38-.42-.55-.74l-6.39-15.16h-26.62l-6.34,15.16c-.11.26-.27.53-.55.68-.27.21-.55.32-.93.32h-3.01l22.14-52.16h3.88l22.14,52.16h.11Z"></path><path class="cls-1" d="M1043.61,684.63h20.22l-10.11-24.05-10.11,24.05ZM1031.64,703.58h.93l6.89-16.16h28.42l6.72,15.95h1.09l-20.99-49.32h-.38l.66,2.05c.16.58.33,1.11.55,1.63.16.47.33.95.49,1.32l11.81,28.16h-28.31l11.81-28.11c.16-.42.33-.84.49-1.37.16-.53.33-1.05.55-1.63l.6-2.05h-.33l-21.04,49.53h.05ZM1079.84,706.21h-5.03c-.66,0-1.26-.21-1.75-.58-.38-.32-.71-.74-.93-1.21l-6.07-14.32h-24.76l-6.01,14.32c-.16.42-.49.84-.93,1.21-.49.42-1.15.58-1.8.58h-5.03l23.28-54.79h5.74l23.28,54.79Z"></path><polygon class="cls-1" points="1136.47 652.74 1136.47 655.95 1117.45 655.95 1117.45 704.9 1113.57 704.9 1113.57 655.95 1094.44 655.95 1094.44 652.74 1136.47 652.74"></polygon><path class="cls-1" d="M1114.93,703.58h1.15v-48.95h19.02v-.58h-39.3v.58h19.13v48.95ZM1118.81,706.21h-6.61v-48.95h-19.13v-5.84h44.76v5.84h-19.02v48.95Z"></path><rect class="cls-1" x="1166.42" y="652.74" width="3.94" height="52.16"></rect><path class="cls-1" d="M1167.73,703.58h1.2v-49.53h-1.2v49.53ZM1171.72,706.21h-6.67v-54.79h6.67v54.79Z"></path><path class="cls-1" d="M1251.19,678.79c0-3.63-.55-6.89-1.58-9.79-1.04-2.89-2.51-5.37-4.43-7.37-1.91-2-4.21-3.58-6.89-4.63-2.68-1.05-5.63-1.58-8.91-1.58s-6.18.53-8.8,1.58c-2.68,1.05-4.97,2.63-6.89,4.63-1.91,2-3.39,4.47-4.48,7.37-1.04,2.9-1.58,6.16-1.58,9.79s.55,6.95,1.58,9.84c1.04,2.89,2.57,5.32,4.48,7.37,1.91,2,4.21,3.53,6.89,4.63,2.68,1.05,5.63,1.58,8.8,1.58s6.23-.53,8.91-1.58c2.68-1.05,4.97-2.58,6.89-4.63,1.91-2,3.39-4.47,4.43-7.37,1.04-2.9,1.58-6.16,1.58-9.84ZM1255.29,678.79c0,4.05-.6,7.68-1.86,10.95-1.26,3.26-3.01,6.05-5.3,8.42-2.3,2.32-4.97,4.11-8.14,5.37-3.17,1.26-6.67,1.89-10.49,1.89s-7.27-.63-10.44-1.89c-3.17-1.26-5.9-3.05-8.14-5.37-2.3-2.32-4.04-5.11-5.3-8.42-1.26-3.26-1.91-6.95-1.91-10.95s.66-7.63,1.91-10.95c1.26-3.26,3.01-6.11,5.3-8.42,2.3-2.32,4.97-4.11,8.14-5.42,3.17-1.26,6.67-1.9,10.44-1.9s7.38.63,10.49,1.9c3.17,1.26,5.9,3.05,8.14,5.42,2.24,2.37,4.04,5.16,5.3,8.42,1.26,3.26,1.86,6.9,1.86,10.95Z"></path><path class="cls-1" d="M1229.44,656.74c-3.01,0-5.79.53-8.31,1.53-2.46,1-4.65,2.42-6.39,4.32-1.8,1.89-3.17,4.21-4.21,6.9-.98,2.74-1.53,5.89-1.53,9.37s.49,6.63,1.53,9.37c.98,2.68,2.41,5.05,4.21,6.9,1.8,1.84,3.94,3.32,6.39,4.26,5.03,2,11.7,1.95,16.67,0,2.46-.95,4.65-2.42,6.39-4.26,1.75-1.9,3.17-4.21,4.15-6.9.98-2.74,1.48-5.9,1.48-9.37s-.49-6.63-1.48-9.37c-.98-2.74-2.35-5.05-4.15-6.9-1.75-1.84-3.88-3.32-6.39-4.32s-5.3-1.53-8.42-1.53h.05ZM1229.44,703.48c-3.39,0-6.5-.58-9.35-1.68-2.84-1.11-5.3-2.79-7.38-4.95-2.02-2.16-3.66-4.74-4.75-7.79-1.09-3-1.69-6.47-1.69-10.26s.55-7.21,1.69-10.26c1.09-3.05,2.73-5.68,4.75-7.84,2.08-2.16,4.54-3.79,7.38-4.95,5.68-2.26,13.17-2.26,18.8,0,2.84,1.16,5.36,2.79,7.38,4.95,2.02,2.16,3.61,4.79,4.7,7.84,1.09,3.05,1.64,6.47,1.64,10.21s-.55,7.26-1.64,10.26c-1.09,3.05-2.68,5.68-4.7,7.79-2.02,2.16-4.48,3.84-7.38,4.95-2.84,1.11-6.01,1.68-9.46,1.68v.05ZM1229.44,653.47c-3.61,0-6.94.63-9.89,1.79-2.95,1.21-5.57,2.89-7.71,5.11-2.13,2.16-3.83,4.84-5.03,7.95-1.2,3.11-1.8,6.63-1.8,10.47s.6,7.37,1.8,10.53c1.2,3.11,2.9,5.79,5.03,7.95,2.13,2.16,4.7,3.9,7.65,5.05,6.01,2.42,13.99,2.37,19.89,0,2.95-1.21,5.57-2.9,7.71-5.05,2.13-2.16,3.83-4.84,4.97-7.95,1.2-3.11,1.8-6.63,1.8-10.53s-.6-7.37-1.8-10.47c-1.2-3.11-2.84-5.79-4.97-7.95-2.13-2.21-4.7-3.89-7.65-5.11-2.95-1.21-6.34-1.79-10-1.79h0ZM1229.44,706.79c-3.99,0-7.65-.68-10.99-2-3.33-1.32-6.23-3.26-8.64-5.68-2.41-2.42-4.26-5.42-5.57-8.84-1.31-3.42-1.97-7.26-1.97-11.42s.66-7.95,1.97-11.37c1.31-3.42,3.22-6.42,5.57-8.84,2.4-2.42,5.3-4.37,8.64-5.68,6.67-2.68,15.47-2.63,22.03,0,3.33,1.32,6.23,3.26,8.64,5.68,2.4,2.47,4.26,5.42,5.57,8.84,1.31,3.42,1.97,7.26,1.97,11.37s-.66,8-1.97,11.42c-1.31,3.42-3.17,6.42-5.57,8.84-2.4,2.42-5.3,4.37-8.64,5.68-3.28,1.32-7.05,2-11.04,2Z"></path><path class="cls-1" d="M1289.88,652.9s.44.26.66.58l35.03,45.16c-.05-.74-.11-1.42-.11-2.16v-43.74h3.44v52.16h-1.86c-.6,0-1.04-.26-1.42-.74l-35.2-45.27c.05.74.11,1.42.11,2.11v43.9h-3.39v-52.16h1.91c.38,0,.66,0,.82.11v.05Z"></path><path class="cls-1" d="M1288.57,654.37l38.1,49s.22.21.33.21h.49v-49.53h-.71v42.42c0,.63,0,1.32.11,2l.49,4.68-37.99-48.95.44-1.37-.55,1.21h-.87v49.48h.66v-42.58c0-.63,0-1.26-.11-2l-.49-4.68.11.11ZM1330.28,706.21h-3.22c-1.04,0-1.91-.47-2.51-1.32l-32.57-41.9v43.21h-6.12v-54.79h3.28c.55,0,.98.05,1.37.21.44.21.82.53,1.2,1l32.47,41.84v-43.11h6.18v54.79l-.06.05Z"></path></g></g></svg>